<?xml version="1.0" encoding="us-ascii" standalone="no"?><svg xmlns="http://www.w3.org/2000/svg" xmlns:xlink="http://www.w3.org/1999/xlink" contentStyleType="text/css" height="2200px" preserveAspectRatio="none" style="width:2743px;height:2200px;background:#FFFFFF;" version="1.1" viewBox="0 0 2743 2200" width="2743.75px" zoomAndPan="magnify"><defs/><g><text fill="#000000" font-family="sans-serif" font-size="43.75" font-weight="bold" lengthAdjust="spacing" textLength="940.625" x="889.0625" y="92.2913">Refactored OmniStore - Sequence Diagram</text><line style="stroke:#181818;stroke-width:1.5625;stroke-dasharray:5.0,5.0;" x1="118.75" x2="118.75" y1="378.8086" y2="1944.1895"/><line style="stroke:#181818;stroke-width:1.5625;stroke-dasharray:5.0,5.0;" x1="628.125" x2="628.125" y1="378.8086" y2="1944.1895"/><line style="stroke:#181818;stroke-width:1.5625;stroke-dasharray:5.0,5.0;" x1="1000" x2="1000" y1="378.8086" y2="1944.1895"/><line style="stroke:#181818;stroke-width:1.5625;stroke-dasharray:5.0,5.0;" x1="1431.25" x2="1431.25" y1="378.8086" y2="1944.1895"/><line style="stroke:#181818;stroke-width:1.5625;stroke-dasharray:5.0,5.0;" x1="1834.375" x2="1834.375" y1="378.8086" y2="1944.1895"/><line style="stroke:#181818;stroke-width:1.5625;stroke-dasharray:5.0,5.0;" x1="2156.25" x2="2156.25" y1="378.8086" y2="1944.1895"/><line style="stroke:#181818;stroke-width:1.5625;stroke-dasharray:5.0,5.0;" x1="2500" x2="2500" y1="378.8086" y2="1944.1895"/><text fill="#000000" font-family="sans-serif" font-size="43.75" lengthAdjust="spacing" textLength="190.625" x="15.625" y="369.1956">Customer</text><ellipse cx="120.3125" cy="162.8418" fill="#E2E2F0" rx="25" ry="25" style="stroke:#181818;stroke-width:1.5625;"/><path d="M120.3125,187.8418 L120.3125,272.2168 M79.6875,212.8418 L160.9375,212.8418 M120.3125,272.2168 L79.6875,319.0918 M120.3125,272.2168 L160.9375,319.0918 " fill="none" style="stroke:#181818;stroke-width:1.5625;"/><text fill="#000000" font-family="sans-serif" font-size="43.75" lengthAdjust="spacing" textLength="190.625" x="15.625" y="1986.4807">Customer</text><ellipse cx="120.3125" cy="2022.6563" fill="#E2E2F0" rx="25" ry="25" style="stroke:#181818;stroke-width:1.5625;"/><path d="M120.3125,2047.6563 L120.3125,2132.0313 M79.6875,2072.6563 L160.9375,2072.6563 M120.3125,2132.0313 L79.6875,2178.9063 M120.3125,2132.0313 L160.9375,2178.9063 " fill="none" style="stroke:#181818;stroke-width:1.5625;"/><rect fill="#E2E2F0" height="98.7793" rx="7.8125" ry="7.8125" style="stroke:#181818;stroke-width:1.5625;" width="265.625" x="496.875" y="276.9043"/><text fill="#000000" font-family="sans-serif" font-size="43.75" lengthAdjust="spacing" textLength="221.875" x="518.75" y="344.1956">BasicOrder</text><rect fill="#E2E2F0" height="98.7793" rx="7.8125" ry="7.8125" style="stroke:#181818;stroke-width:1.5625;" width="265.625" x="496.875" y="1941.0645"/><text fill="#000000" font-family="sans-serif" font-size="43.75" lengthAdjust="spacing" textLength="221.875" x="518.75" y="2008.3557">BasicOrder</text><rect fill="#E2E2F0" height="98.7793" rx="7.8125" ry="7.8125" style="stroke:#181818;stroke-width:1.5625;" width="415.625" x="793.75" y="276.9043"/><text fill="#000000" font-family="sans-serif" font-size="43.75" lengthAdjust="spacing" textLength="371.875" x="815.625" y="344.1956">GiftWrapDecorator</text><rect fill="#E2E2F0" height="98.7793" rx="7.8125" ry="7.8125" style="stroke:#181818;stroke-width:1.5625;" width="415.625" x="793.75" y="1941.0645"/><text fill="#000000" font-family="sans-serif" font-size="43.75" lengthAdjust="spacing" textLength="371.875" x="815.625" y="2008.3557">GiftWrapDecorator</text><rect fill="#E2E2F0" height="98.7793" rx="7.8125" ry="7.8125" style="stroke:#181818;stroke-width:1.5625;" width="381.25" x="1240.625" y="276.9043"/><text fill="#000000" font-family="sans-serif" font-size="43.75" lengthAdjust="spacing" textLength="337.5" x="1262.5" y="344.1956">DiscountStrategy</text><rect fill="#E2E2F0" height="98.7793" rx="7.8125" ry="7.8125" style="stroke:#181818;stroke-width:1.5625;" width="381.25" x="1240.625" y="1941.0645"/><text fill="#000000" font-family="sans-serif" font-size="43.75" lengthAdjust="spacing" textLength="337.5" x="1262.5" y="2008.3557">DiscountStrategy</text><rect fill="#E2E2F0" height="98.7793" rx="7.8125" ry="7.8125" style="stroke:#181818;stroke-width:1.5625;" width="365.625" x="1653.125" y="276.9043"/><text fill="#000000" font-family="sans-serif" font-size="43.75" lengthAdjust="spacing" textLength="321.875" x="1675" y="344.1956">PaymentFactory</text><rect fill="#E2E2F0" height="98.7793" rx="7.8125" ry="7.8125" style="stroke:#181818;stroke-width:1.5625;" width="365.625" x="1653.125" y="1941.0645"/><text fill="#000000" font-family="sans-serif" font-size="43.75" lengthAdjust="spacing" textLength="321.875" x="1675" y="2008.3557">PaymentFactory</text><rect fill="#E2E2F0" height="98.7793" rx="7.8125" ry="7.8125" style="stroke:#181818;stroke-width:1.5625;" width="215.625" x="2050" y="276.9043"/><text fill="#000000" font-family="sans-serif" font-size="43.75" lengthAdjust="spacing" textLength="171.875" x="2071.875" y="344.1956">Payment</text><rect fill="#E2E2F0" height="98.7793" rx="7.8125" ry="7.8125" style="stroke:#181818;stroke-width:1.5625;" width="215.625" x="2050" y="1941.0645"/><text fill="#000000" font-family="sans-serif" font-size="43.75" lengthAdjust="spacing" textLength="171.875" x="2071.875" y="2008.3557">Payment</text><rect fill="#E2E2F0" height="98.7793" rx="7.8125" ry="7.8125" style="stroke:#181818;stroke-width:1.5625;" width="409.375" x="2296.875" y="276.9043"/><text fill="#000000" font-family="sans-serif" font-size="43.75" lengthAdjust="spacing" textLength="365.625" x="2318.75" y="344.1956">DatabaseManager</text><rect fill="#E2E2F0" height="98.7793" rx="7.8125" ry="7.8125" style="stroke:#181818;stroke-width:1.5625;" width="409.375" x="2296.875" y="1941.0645"/><text fill="#000000" font-family="sans-serif" font-size="43.75" lengthAdjust="spacing" textLength="365.625" x="2318.75" y="2008.3557">DatabaseManager</text><rect fill="#EEEEEE" height="9.375" style="stroke:#EEEEEE;stroke-width:3.125;" width="2721.875" x="0" y="476.2329"/><line style="stroke:#000000;stroke-width:3.125;" x1="0" x2="2721.875" y1="476.2329" y2="476.2329"/><line style="stroke:#000000;stroke-width:3.125;" x1="0" x2="2721.875" y1="485.6079" y2="485.6079"/><rect fill="#EEEEEE" height="76.0986" style="stroke:#000000;stroke-width:6.25;" width="312.5" x="1204.6875" y="441.3086"/><text fill="#000000" font-family="sans-serif" font-size="40.625" font-weight="bold" lengthAdjust="spacing" textLength="256.25" x="1223.4375" y="495.9808">Create Order</text><polygon fill="#181818" points="592.1875,606.0059,623.4375,618.5059,592.1875,631.0059,604.6875,618.5059" style="stroke:#181818;stroke-width:3.125;"/><line style="stroke:#181818;stroke-width:3.125;" x1="120.3125" x2="610.9375" y1="618.5059" y2="618.5059"/><text fill="#000000" font-family="sans-serif" font-size="40.625" font-weight="bold" lengthAdjust="spacing" textLength="21.875" x="142.1875" y="603.3295">1</text><text fill="#000000" font-family="sans-serif" font-size="40.625" lengthAdjust="spacing" textLength="400" x="176.5625" y="603.3295">new BasicOrder(3000)</text><polygon fill="#181818" points="964.0625,700.8545,995.3125,713.3545,964.0625,725.8545,976.5625,713.3545" style="stroke:#181818;stroke-width:3.125;"/><line style="stroke:#181818;stroke-width:3.125;" x1="120.3125" x2="982.8125" y1="713.3545" y2="713.3545"/><text fill="#000000" font-family="sans-serif" font-size="40.625" font-weight="bold" lengthAdjust="spacing" textLength="21.875" x="142.1875" y="698.1781">2</text><text fill="#000000" font-family="sans-serif" font-size="40.625" lengthAdjust="spacing" textLength="187.5" x="176.5625" y="698.1781">wrap order</text><polygon fill="#181818" points="664.0625,795.7031,632.8125,808.2031,664.0625,820.7031,651.5625,808.2031" style="stroke:#181818;stroke-width:3.125;"/><line style="stroke:#181818;stroke-width:3.125;" x1="645.3125" x2="998.4375" y1="808.2031" y2="808.2031"/><text fill="#000000" font-family="sans-serif" font-size="40.625" font-weight="bold" lengthAdjust="spacing" textLength="21.875" x="682.8125" y="793.0267">3</text><text fill="#000000" font-family="sans-serif" font-size="40.625" lengthAdjust="spacing" textLength="165.625" x="717.1875" y="793.0267">getCost()</text><rect fill="#EEEEEE" height="9.375" style="stroke:#EEEEEE;stroke-width:3.125;" width="2721.875" x="0" y="899.3774"/><line style="stroke:#000000;stroke-width:3.125;" x1="0" x2="2721.875" y1="899.3774" y2="899.3774"/><line style="stroke:#000000;stroke-width:3.125;" x1="0" x2="2721.875" y1="908.7524" y2="908.7524"/><rect fill="#EEEEEE" height="76.0986" style="stroke:#000000;stroke-width:6.25;" width="709.375" x="1006.25" y="864.4531"/><text fill="#000000" font-family="sans-serif" font-size="40.625" font-weight="bold" lengthAdjust="spacing" textLength="653.125" x="1025" y="919.1254">Apply Discount (Strategy Pattern)</text><polygon fill="#181818" points="1393.75,1029.1504,1425,1041.6504,1393.75,1054.1504,1406.25,1041.6504" style="stroke:#181818;stroke-width:3.125;"/><line style="stroke:#181818;stroke-width:3.125;" x1="120.3125" x2="1412.5" y1="1041.6504" y2="1041.6504"/><text fill="#000000" font-family="sans-serif" font-size="40.625" font-weight="bold" lengthAdjust="spacing" textLength="21.875" x="142.1875" y="1026.474">4</text><text fill="#000000" font-family="sans-serif" font-size="40.625" lengthAdjust="spacing" textLength="359.375" x="176.5625" y="1026.474">applyDiscount(total)</text><polygon fill="#181818" points="154.6875,1123.999,123.4375,1136.499,154.6875,1148.999,142.1875,1136.499" style="stroke:#181818;stroke-width:3.125;"/><line style="stroke:#181818;stroke-width:3.125;stroke-dasharray:2.0,2.0;" x1="135.9375" x2="1428.125" y1="1136.499" y2="1136.499"/><text fill="#000000" font-family="sans-serif" font-size="40.625" font-weight="bold" lengthAdjust="spacing" textLength="21.875" x="173.4375" y="1121.3226">5</text><text fill="#000000" font-family="sans-serif" font-size="40.625" lengthAdjust="spacing" textLength="284.375" x="207.8125" y="1121.3226">discountedTotal</text><rect fill="#EEEEEE" height="9.375" style="stroke:#EEEEEE;stroke-width:3.125;" width="2721.875" x="0" y="1227.6733"/><line style="stroke:#000000;stroke-width:3.125;" x1="0" x2="2721.875" y1="1227.6733" y2="1227.6733"/><line style="stroke:#000000;stroke-width:3.125;" x1="0" x2="2721.875" y1="1237.0483" y2="1237.0483"/><rect fill="#EEEEEE" height="76.0986" style="stroke:#000000;stroke-width:6.25;" width="715.625" x="1003.125" y="1192.749"/><text fill="#000000" font-family="sans-serif" font-size="40.625" font-weight="bold" lengthAdjust="spacing" textLength="659.375" x="1021.875" y="1247.4213">Create Payment (Factory Pattern)</text><polygon fill="#181818" points="1798.4375,1357.4463,1829.6875,1369.9463,1798.4375,1382.4463,1810.9375,1369.9463" style="stroke:#181818;stroke-width:3.125;"/><line style="stroke:#181818;stroke-width:3.125;" x1="120.3125" x2="1817.1875" y1="1369.9463" y2="1369.9463"/><text fill="#000000" font-family="sans-serif" font-size="40.625" font-weight="bold" lengthAdjust="spacing" textLength="21.875" x="142.1875" y="1354.7699">6</text><text fill="#000000" font-family="sans-serif" font-size="40.625" lengthAdjust="spacing" textLength="521.875" x="176.5625" y="1354.7699">createPayment("CreditCard")</text><polygon fill="#181818" points="154.6875,1452.2949,123.4375,1464.7949,154.6875,1477.2949,142.1875,1464.7949" style="stroke:#181818;stroke-width:3.125;"/><line style="stroke:#181818;stroke-width:3.125;stroke-dasharray:2.0,2.0;" x1="135.9375" x2="1832.8125" y1="1464.7949" y2="1464.7949"/><text fill="#000000" font-family="sans-serif" font-size="40.625" font-weight="bold" lengthAdjust="spacing" textLength="21.875" x="173.4375" y="1449.6185">7</text><text fill="#000000" font-family="sans-serif" font-size="40.625" lengthAdjust="spacing" textLength="284.375" x="207.8125" y="1449.6185">Payment object</text><polygon fill="#181818" points="2120.3125,1547.1436,2151.5625,1559.6436,2120.3125,1572.1436,2132.8125,1559.6436" style="stroke:#181818;stroke-width:3.125;"/><line style="stroke:#181818;stroke-width:3.125;" x1="120.3125" x2="2139.0625" y1="1559.6436" y2="1559.6436"/><text fill="#000000" font-family="sans-serif" font-size="40.625" font-weight="bold" lengthAdjust="spacing" textLength="21.875" x="142.1875" y="1544.4672">8</text><text fill="#000000" font-family="sans-serif" font-size="40.625" lengthAdjust="spacing" textLength="375" x="176.5625" y="1544.4672">pay(discountedTotal)</text><rect fill="#EEEEEE" height="9.375" style="stroke:#EEEEEE;stroke-width:3.125;" width="2721.875" x="0" y="1650.8179"/><line style="stroke:#000000;stroke-width:3.125;" x1="0" x2="2721.875" y1="1650.8179" y2="1650.8179"/><line style="stroke:#000000;stroke-width:3.125;" x1="0" x2="2721.875" y1="1660.1929" y2="1660.1929"/><rect fill="#EEEEEE" height="76.0986" style="stroke:#000000;stroke-width:6.25;" width="415.625" x="1153.125" y="1615.8936"/><text fill="#000000" font-family="sans-serif" font-size="40.625" font-weight="bold" lengthAdjust="spacing" textLength="359.375" x="1171.875" y="1670.5658">Save To Database</text><polygon fill="#181818" points="2464.0625,1780.5908,2495.3125,1793.0908,2464.0625,1805.5908,2476.5625,1793.0908" style="stroke:#181818;stroke-width:3.125;"/><line style="stroke:#181818;stroke-width:3.125;" x1="120.3125" x2="2482.8125" y1="1793.0908" y2="1793.0908"/><text fill="#000000" font-family="sans-serif" font-size="40.625" font-weight="bold" lengthAdjust="spacing" textLength="21.875" x="142.1875" y="1777.9144">9</text><text fill="#000000" font-family="sans-serif" font-size="40.625" lengthAdjust="spacing" textLength="793.75" x="176.5625" y="1777.9144">insertOrder(description, cost, paymentType)</text><polygon fill="#181818" points="154.6875,1875.4395,123.4375,1887.9395,154.6875,1900.4395,142.1875,1887.9395" style="stroke:#181818;stroke-width:3.125;"/><line style="stroke:#181818;stroke-width:3.125;stroke-dasharray:2.0,2.0;" x1="135.9375" x2="2498.4375" y1="1887.9395" y2="1887.9395"/><text fill="#000000" font-family="sans-serif" font-size="40.625" font-weight="bold" lengthAdjust="spacing" textLength="43.75" x="173.4375" y="1872.7631">10</text><text fill="#000000" font-family="sans-serif" font-size="40.625" lengthAdjust="spacing" textLength="225" x="229.6875" y="1872.7631">Order stored</text><!--SRC=[TP9FIyD04CNl-oc6dXAmKF1Mg60RsfEqc4BFqyrOLflTTNTYoRTtyazDr5l8_DwRUI-9RyPw35X2uGtSBnOAAtQsAiyK51k-4ZpJ2sfsWGhObzRapIFC8QVtYgmco0nUn42fbe9D5TcLebRYoqORZvPXjiPez3uK56Q04TRxyNXdNlWKq6UaNK3nQQdTAHjZcOdQLPPp5eWkTKjb-HWwO5sIvMrxJuSSjdyYtMoo0XdF6Ea9BLxwQxErKgiLR0B9LcXJm6gbXgWmVv10i0HBD_WEcaYTYtH4II31RX8KN8EeviMWlX1lNEGaRPSzUd-jOGWCoH0P3iXCmQRJ2x9SFB1H3QA47UCrLJAP2_05Bw7e2IgE3V8pNLyD97r__-uxRCL8jw9Uayp4ep2ymL3CKYN0PEtWxSwlf5cDxMJkiKucftLbvFX1S7GmV9nVsTUYDZPIuAxwWg8EnhDnzWwqj7hNc3VBZxKdCHN5vBZkiyRsJrUV]--></g></svg>